<svg xmlns="http://www.w3.org/2000/svg" viewBox="0 0 216.13 46.88"><defs><style>.cls-1{fill:#26377d;}.cls-2{fill:#26377e;}.cls-3{fill:#28357f;}.cls-4{fill:#2a3e85;}.cls-5{fill:#7280ba;}.cls-6{fill:#25377c;}</style></defs><g id="Capa_2" data-name="Capa 2"><g id="Capa_1-2" data-name="Capa 1"><path class="cls-1" d="M0,46.36V33.9S-.65,18.64,15.33,18.84s19.83,0,19.83,0,1,6.32-5.42,8.15c-6.71,0-15.06-.13-15.06-.13s-5.09-.2-6.2,4.83c.07,5.28.2,8.21.2,8.21S8.29,47,0,46.36Z"/><path class="cls-1" d="M0,22.69S3.26,17.53,8.42,17V13.82s.52-5.16,5.8-5.29,16.89,0,16.89,0S36.85,7.36,35.87.06H13.44S2.42.9.53,13.1C.33,18.19,0,22.69,0,22.69Z"/><path class="cls-1" d="M38.87.06s7.11-1,8.35,5.28V46.4s-7,1.53-8-5.91C38.87,34.88,38.87.06,38.87.06Z"/><path class="cls-2" d="M176,41.63s-11.64,11.55-25.33,0c-6.85-6.68-7-19.07,0-25.47,5.74-6.84,18.88-7.17,25.17,0,7.83,8.65,4.63,17.45,4.63,17.45H162.07c-3.36-.23-5.19-3-5.32-5.9V25.29s13.34,0,14.91,0c-2.19-7.95-14.74-7.95-17.19,0-3.62,10.37,8.09,17,14.87,10.67Z"/><path class="cls-3" d="M184.19,46.38V24.71c4-18.49,28.32-17.81,31.94,0V46.38s-8.46,1.17-8.46-7,.05-11.15,0-14.14c-1.61-7.72-12.76-8.11-15,0,0,7.05-.14,12.28-.14,15.66C192.26,44.22,190.45,46.44,184.19,46.38Z"/><path class="cls-4" d="M51.66,11.79V32.62C54,51.17,81,52.1,83.92,32.62V11.37s-8.39-1.08-8.39,7.47c0,0,.1,5.92.1,12.32,0,9.79-15.48,9.44-15.48,0V18.44S60.62,11,51.66,11.79Z"/><path class="cls-5" d="M75.63,31.16h0c0,9.66-15.08,9.45-15.46.35A18.93,18.93,0,0,1,53.35,25c0,4.89,12.76,22.58,29.85,10.73a19,19,0,0,0,.72-3.08V25.28A36.86,36.86,0,0,1,75.63,31.16Z"/><path class="cls-6" d="M88,46.18s7.94,1.63,8.24-6.45,0-12,0-14.52a7.46,7.46,0,0,1,14.57,0V46.32h5.73s2,.06,2.54-3.27V25.21c1.81-8.18,12.42-8.08,14.33,0v15s.54,6.09,6.56,6.06H142s.2-19.49,0-21.11-1.59-6.77-4.69-9.46C124.28,5,114.79,16,114.79,16S104.12,5,92.38,16C87.44,21.23,88,25.54,88,25.54Z"/><path class="cls-5" d="M104.73,19.46c-6-2.25-12.17-.27-15.9,1.84A9.2,9.2,0,0,0,88,25.54V32a26.52,26.52,0,0,1,8.29-4.35c0-.94,0-1.72,0-2.4A7.33,7.33,0,0,1,104.73,19.46Z"/><path class="cls-5" d="M117.33,34.64c-2.21-6.13-5-10.12-8.13-12.61a7.92,7.92,0,0,1,1.62,3.18v4A22.9,22.9,0,0,1,117.33,34.64Z"/></g></g></svg>