<svg xmlns="http://www.w3.org/2000/svg" viewBox="0 0 216.1 46.89"><defs><style>.cls-1{fill:#e4ecf7;}.cls-2{fill:#00c2c7;}</style></defs><g id="Capa_2" data-name="Capa 2"><g id="Capa_1-2" data-name="Capa 1"><path class="cls-1" d="M0,46.4V33.9S-.7,18.6,15.3,18.8s19.8,0,19.8,0,1,6.3-5.4,8.2c-6.7,0-15.1-.1-15.1-.1s-5.1-.2-6.2,4.8c.1,5.3.2,8.2.2,8.2S8.3,47.1,0,46.4Z"/><path class="cls-1" d="M0,22.7S3.3,17.5,8.4,17V13.8s.5-5.2,5.8-5.3,16.9,0,16.9,0S36.8,7.3,35.9,0H13.5S2.5.8.6,13C.3,18.2,0,22.7,0,22.7Z"/><path class="cls-1" d="M38.9.1s7.1-1,8.3,5.3V46.5s-7,1.5-8-5.9C38.9,34.9,38.9.1,38.9.1Z"/><path class="cls-1" d="M176,41.7s-11.6,11.5-25.3,0c-6.8-6.7-7-19.1,0-25.5,5.7-6.8,18.9-7.2,25.2,0,7.8,8.6,4.6,17.4,4.6,17.4H162.1c-3.4-.2-5.2-3-5.3-5.9V25.3h14.9c-2.2-8-14.7-8-17.2,0-3.6,10.4,8.1,17,14.9,10.7Z"/><path class="cls-1" d="M184.2,46.4V24.7c4-18.5,28.3-17.8,31.9,0V46.4s-8.5,1.2-8.5-6.9V25.4c-1.6-7.7-12.8-8.1-15,0,0,7-.1,12.3-.1,15.7C192.3,44.3,190.5,46.5,184.2,46.4Z"/><path class="cls-1" d="M51.7,11.8V32.6C54,51.2,81,52.1,84,32.6V11.4s-8.4-1.1-8.4,7.5c0,0,.1,5.9.1,12.3,0,9.8-15.5,9.4-15.5,0V18.5S60.6,11,51.7,11.8Z"/><path class="cls-2" d="M75.6,31.2h0c0,9.7-15.1,9.4-15.5.4a19.41,19.41,0,0,1-6.8-6.5c0,4.9,12.8,22.6,29.8,10.7a15.54,15.54,0,0,0,.7-3.1V25.4A35.57,35.57,0,0,1,75.6,31.2Z"/><path class="cls-1" d="M88,46.2s7.9,1.6,8.2-6.4,0-12,0-14.5c2-8,12.6-7.6,14.6,0V46.4h5.7s2,.1,2.5-3.3V25.3c1.8-8.2,12.4-8.1,14.3,0V40.4s.5,6.1,6.6,6.1H142s.2-19.5,0-21.1-1.6-6.8-4.7-9.5c-13.1-10.8-22.5.2-22.5.2s-10.7-10.9-22.4,0c-4.9,5.3-4.4,9.6-4.4,9.6V46.2Z"/><path class="cls-2" d="M104.7,19.5c-6-2.2-12.2-.3-15.9,1.8a9.6,9.6,0,0,0-.8,4.2v6.4a24.48,24.48,0,0,1,8.3-4.3V25.2A7.27,7.27,0,0,1,104.7,19.5Z"/><path class="cls-1" d="M117.3,34.7c-2.2-6.1-5.1-10.1-8.1-12.6a8,8,0,0,1,1.6,3.2v4A21.74,21.74,0,0,1,117.3,34.7Z"/></g></g></svg>