<svg xmlns="http://www.w3.org/2000/svg" width="1200" height="675" viewBox="0 0 1200 675" fill="none">
  <defs>
    <linearGradient id="bg" x1="0" y1="0" x2="1" y2="1">
      <stop offset="0%" stop-color="#0F1524"/>
      <stop offset="55%" stop-color="#15233A"/>
      <stop offset="100%" stop-color="#0C3B3A"/>
    </linearGradient>
    <linearGradient id="wave" x1="0" y1="0" x2="1" y2="0">
      <stop offset="0%" stop-color="#26377D" stop-opacity="0"/>
      <stop offset="50%" stop-color="#00B8A9" stop-opacity="0.55"/>
      <stop offset="100%" stop-color="#1ECAD3" stop-opacity="0"/>
    </linearGradient>
    <radialGradient id="glow" cx="78%" cy="28%" r="55%">
      <stop offset="0%" stop-color="#26377D" stop-opacity="0.45"/>
      <stop offset="100%" stop-color="#26377D" stop-opacity="0"/>
    </radialGradient>
  </defs>
  <rect width="1200" height="675" fill="url(#bg)"/>
  <rect width="1200" height="675" fill="url(#glow)"/>
  <path d="M0 470 C 220 410, 360 540, 600 480 S 980 410, 1200 470 L 1200 675 L 0 675 Z" fill="url(#wave)"/>
  <path d="M0 530 C 260 480, 420 600, 660 540 S 1000 480, 1200 540" stroke="#1ECAD3" stroke-opacity="0.25" stroke-width="2" fill="none"/>
  <g transform="translate(120 240)" stroke="#1ECAD3" stroke-width="3.5" fill="none">
    <circle cx="60" cy="60" r="60" fill="#00B8A9" fill-opacity="0.12" stroke="none"/>
    <circle cx="44" cy="46" r="11"/>
    <circle cx="80" cy="46" r="11"/>
    <path d="M28 88 c0-11 8-19 16-19 h0 c4 0 7 1 10 3"/>
    <path d="M64 88 c0-13 9-22 18-22 s18 9 18 22"/>
  </g>
  <text x="120" y="430" font-family="Inter, Arial, sans-serif" font-size="34" font-weight="700" fill="#C2DDE5" letter-spacing="2">GUÍAS</text>
  <text x="120" y="180" font-family="Inter, Arial, sans-serif" font-size="20" font-weight="600" fill="#00B8A9" letter-spacing="6">FLUMEN · AUTOMATIZACIÓN</text>
</svg>
