<svg xmlns="http://www.w3.org/2000/svg" width="1200" height="675" viewBox="0 0 1200 675" fill="none">
  <defs>
    <linearGradient id="bg" x1="0" y1="0" x2="1" y2="1">
      <stop offset="0%" stop-color="#0F1524"/>
      <stop offset="55%" stop-color="#15233A"/>
      <stop offset="100%" stop-color="#0C3B3A"/>
    </linearGradient>
    <linearGradient id="wave" x1="0" y1="0" x2="1" y2="0">
      <stop offset="0%" stop-color="#26377D" stop-opacity="0"/>
      <stop offset="50%" stop-color="#00B8A9" stop-opacity="0.55"/>
      <stop offset="100%" stop-color="#1ECAD3" stop-opacity="0"/>
    </linearGradient>
    <radialGradient id="glow" cx="78%" cy="28%" r="55%">
      <stop offset="0%" stop-color="#00B8A9" stop-opacity="0.35"/>
      <stop offset="100%" stop-color="#00B8A9" stop-opacity="0"/>
    </radialGradient>
  </defs>
  <rect width="1200" height="675" fill="url(#bg)"/>
  <rect width="1200" height="675" fill="url(#glow)"/>
  <path d="M0 470 C 220 410, 360 540, 600 480 S 980 410, 1200 470 L 1200 675 L 0 675 Z" fill="url(#wave)"/>
  <path d="M0 530 C 260 480, 420 600, 660 540 S 1000 480, 1200 540" stroke="#1ECAD3" stroke-opacity="0.25" stroke-width="2" fill="none"/>
  <g transform="translate(120 240)">
    <circle cx="60" cy="60" r="60" fill="#00B8A9" fill-opacity="0.12"/>
    <path d="M60 28 C42 28 28 41 28 58 c0 6 2 12 5 17 l-3 13 13-3 c5 2 11 4 17 4 18 0 32-13 32-31 S78 28 60 28 Z" fill="none" stroke="#1ECAD3" stroke-width="3.5" stroke-linejoin="round"/>
  </g>
  <text x="120" y="430" font-family="Inter, Arial, sans-serif" font-size="34" font-weight="700" fill="#C2DDE5" letter-spacing="2">GUÍAS</text>
  <text x="120" y="180" font-family="Inter, Arial, sans-serif" font-size="20" font-weight="600" fill="#00B8A9" letter-spacing="6">FLUMEN · AUTOMATIZACIÓN</text>
</svg>
